<?xml version="1.0" encoding="UTF-8"?>
<svg width="22px" height="22px" viewBox="0 0 22 22" version="1.1" xmlns="http://www.w3.org/2000/svg" xmlns:xlink="http://www.w3.org/1999/xlink">
    <!-- Generator: Sketch 49.1 (51147) - http://www.bohemiancoding.com/sketch -->
    <title>BTC</title>
    <desc>Created with Sketch.</desc>
    <defs></defs>
    <g id="Page-1" stroke="none" stroke-width="1" fill="none" fill-rule="evenodd">
        <g id="Crypto-coin" transform="translate(-209.000000, -214.000000)">
            <g id="BTC" transform="translate(209.000000, 214.000000)">
                <circle id="Oval-2" fill="#F0A122" cx="11" cy="11" r="10"></circle>
                <path d="M14.852885,10.756562 C15.1927623,10.3334968 15.3954348,9.80397395 15.3954348,9.22872008 C15.3954348,7.84434598 14.2247731,6.72212769 12.7812692,6.72212769 L12.3646312,6.72212769 L12.3631844,5.16666667 L11.1520526,5.16666667 L11.1520526,6.72212769 L9.9396347,6.72212769 L9.93899168,5.16666667 L8.72781966,5.16666667 L8.72781966,6.72212769 L6,6.72212769 L6,7.79950121 C6.67042561,7.78591222 7.06647274,7.80990236 7.18814141,7.87147162 C7.64256381,8.10142771 7.51540178,8.67876654 7.51540178,8.99467645 L7.51540178,13.1389362 C7.51540178,13.697422 7.30826753,14.1408357 6.59415147,14.201456 C6.52663417,14.2072935 6.3704069,14.2072935 6.12546966,14.201456 L6.12546966,15.2778723 L8.72705607,15.2778723 L8.72705607,16.8333333 C8.79529677,16.8333333 8.87101261,16.8333333 8.95420357,16.8333333 L9.71184418,16.8333333 C9.79524948,16.8333333 9.87096532,16.8333333 9.93899168,16.8333333 L9.93899168,15.2778723 L11.1512488,15.2778723 L11.1512488,16.8333333 C11.2194895,16.8333333 11.2952187,16.8333333 11.3784365,16.8333333 L12.1360369,16.8333333 C12.2194422,16.8333333 12.2956403,16.8333333 12.3646312,16.8333333 L12.3631844,15.2778723 L13.3859912,15.2778723 C14.8297764,15.2778723 15.999996,14.1707204 15.999996,12.8049224 C16.0015633,11.9524463 15.546143,11.2012165 14.852885,10.756562 Z M9.97125662,8.3261171 L11.8428359,8.3261171 C12.5390415,8.3261171 13.10325,8.81979956 13.10325,9.42908582 C13.10325,10.0382657 12.5390415,10.5319482 11.8428359,10.5319482 L9.97125662,10.5319482 L9.97125662,8.3261171 Z M12.4538795,13.7403524 L9.97125662,13.7403524 L9.97125662,11.5345213 L12.4538795,11.5345213 C13.1500851,11.5345213 13.7142936,12.0282038 13.7142936,12.6374901 C13.7142936,13.24667 13.1500851,13.7403524 12.4538795,13.7403524 Z" id="比特币" fill="#FFFFFF"></path>
            </g>
        </g>
    </g>
</svg>